<svg xmlns="http://www.w3.org/2000/svg" width="600" height="600" fill="none" viewBox="0 0 600 600">
  <path stroke="#fff" stroke-width="30" d="m327.399 447.146-136-81.6a6.998 6.998 0 0 1-3.399-6.002V240.456a6.998 6.998 0 0 1 3.399-6.002l135.999-81.6c4.666-2.8 10.602.561 10.602 6.002v282.288c0 5.441-5.936 8.802-10.601 6.002Z"/>
  <mask id="a" fill="#fff">
    <rect width="105" height="194" x="97" y="203" rx="22"/>
  </mask>
  <rect width="105" height="194" x="97" y="203" stroke="#fff" stroke-width="60" mask="url(#a)" rx="22"/>
  <mask id="b" fill="#fff">
    <path d="M385.191 257.715c2.833-7.785 11.6-11.938 18.442-7.266a59.992 59.992 0 0 1 26.13 51.645 59.999 59.999 0 0 1-29.668 49.696c-7.152 4.184-15.608-.57-17.892-8.534-2.283-7.964 2.786-16.093 8.68-21.916a30.004 30.004 0 0 0 8.897-20.293 29.997 29.997 0 0 0-7.46-20.864c-5.473-6.22-9.963-14.683-7.129-22.468Z"/>
  </mask>
  <path stroke="#fff" stroke-width="48" d="M385.191 257.715c2.833-7.785 11.6-11.938 18.442-7.266a59.992 59.992 0 0 1 26.13 51.645 59.999 59.999 0 0 1-29.668 49.696c-7.152 4.184-15.608-.57-17.892-8.534-2.283-7.964 2.786-16.093 8.68-21.916a30.004 30.004 0 0 0 8.897-20.293 29.997 29.997 0 0 0-7.46-20.864c-5.473-6.22-9.963-14.683-7.129-22.468Z" mask="url(#b)"/>
  <mask id="c" fill="#fff">
    <path d="M404.625 198.261c1.836-8.637 10.38-14.251 18.696-11.284a120.005 120.005 0 0 1 79.653 115.536 120.002 120.002 0 0 1-84.421 112.1c-8.434 2.616-16.735-3.351-18.207-12.058-1.473-8.706 4.473-16.822 12.77-19.843a88.024 88.024 0 0 0 3.437-164.09c-8.163-3.366-13.763-11.724-11.928-20.361Z"/>
  </mask>
  <path stroke="#fff" stroke-width="48" d="M404.625 198.261c1.836-8.637 10.38-14.251 18.696-11.284a120.005 120.005 0 0 1 79.653 115.536 120.002 120.002 0 0 1-84.421 112.1c-8.434 2.616-16.735-3.351-18.207-12.058-1.473-8.706 4.473-16.822 12.77-19.843a88.024 88.024 0 0 0 3.437-164.09c-8.163-3.366-13.763-11.724-11.928-20.361Z" mask="url(#c)"/>
</svg>
