<svg xmlns="http://www.w3.org/2000/svg" width="600" height="900" fill="none"><g clip-path="url(#a)"><rect width="600" height="900" fill="#fff" rx="100"/><rect width="540" height="840" x="30" y="30" fill="#0084F4" rx="100"/><ellipse cx="220" cy="330" fill="#fff" rx="220" ry="330" transform="matrix(-.86603 -.5 -.5 .86603 655 274)"/><path fill="#fff" d="M480 727.75c11.875 0 21.125 4.188 27.75 12.562 6.583 8.376 9.875 20.105 9.875 35.188 0 15.083-3.313 26.833-9.937 35.25-6.626 8.417-15.855 12.625-27.688 12.625-11.833 0-21.062-4.208-27.688-12.625-6.624-8.417-9.937-20.167-9.937-35.25 0-15.083 3.313-26.812 9.937-35.188 6.584-8.374 15.813-12.562 27.688-12.562Zm17.562 47.75c0-10.083-1.5-17.854-4.5-23.312C490.021 746.729 485.667 744 480 744s-10 2.729-13 8.188c-3.042 5.458-4.562 13.229-4.562 23.312 0 10.125 1.52 17.938 4.562 23.438 3 5.5 7.333 8.25 13 8.25 5.625 0 9.958-2.771 13-8.313 3.042-5.5 4.562-13.292 4.562-23.375Z"/><path fill="#0084F4" d="M300 541.734c-25.977 0-46.211-9.16-60.703-27.48-14.401-18.32-21.602-43.978-21.602-76.973s7.246-58.698 21.739-77.109c14.492-18.412 34.681-27.617 60.566-27.617 25.885 0 46.074 9.205 60.566 27.617 14.493 18.411 21.739 44.114 21.739 77.109s-7.246 58.653-21.739 76.973c-14.401 18.32-34.589 27.48-60.566 27.48Zm-38.418-104.453c0 22.058 3.281 39.056 9.844 50.996 6.653 11.94 16.178 17.911 28.574 17.911s21.875-5.971 28.438-17.911c6.653-11.94 9.98-28.938 9.98-50.996 0-22.148-3.327-39.238-9.98-51.269-6.563-12.032-16.042-18.047-28.438-18.047-12.305 0-21.784 6.061-28.438 18.183-6.653 12.032-9.98 29.076-9.98 51.133Z"/><path fill="#fff" d="M120 172.25c-11.875 0-21.125-4.188-27.75-12.562-6.583-8.376-9.875-20.105-9.875-35.188 0-15.083 3.313-26.833 9.938-35.25 6.624-8.417 15.854-12.625 27.687-12.625 11.833 0 21.062 4.208 27.688 12.625 6.624 8.417 9.937 20.167 9.937 35.25 0 15.083-3.313 26.812-9.937 35.188-6.584 8.374-15.813 12.562-27.688 12.562Zm-17.562-47.75c0 10.083 1.5 17.854 4.5 23.312C109.979 153.271 114.333 156 120 156s10-2.729 13-8.188c3.042-5.458 4.562-13.229 4.562-23.312 0-10.125-1.52-17.938-4.562-23.438-3-5.5-7.333-8.25-13-8.25-5.625 0-9.958 2.771-13 8.313-3.042 5.5-4.562 13.292-4.562 23.375Z"/></g><defs><clipPath id="a"><path fill="#fff" d="M0 0h600v900H0z"/></clipPath></defs></svg>