<svg xmlns="http://www.w3.org/2000/svg" width="600" height="900" fill="none"><g clip-path="url(#a)"><rect width="600" height="900" fill="#fff" rx="100"/><rect width="540" height="840" x="30" y="30" fill="#0084F4" rx="100"/><ellipse cx="220" cy="330" fill="#fff" rx="220" ry="330" transform="matrix(-.86603 -.5 -.5 .86603 655 274)"/><path fill="#fff" d="M460.438 822.125V729h19.624v74.438h.563L501.938 790v17.5l-23.063 14.625h-18.437Z"/><path fill="#0084F4" d="M342.793 335.289V539h-42.93V376.168h-1.23l-46.621 29.394v-38.281l50.449-31.992h40.332Z"/><path fill="#fff" d="M139.562 77.875V171h-19.624V96.562h-.563L98.062 110V92.5l23.063-14.625h18.437Z"/></g><defs><clipPath id="a"><path fill="#fff" d="M0 0h600v900H0z"/></clipPath></defs></svg>