<svg xmlns="http://www.w3.org/2000/svg" width="600" height="900" fill="none"><g clip-path="url(#a)"><rect width="600" height="900" fill="#fff" rx="100"/><rect width="540" height="840" x="30" y="30" fill="#0084F4" rx="100"/><ellipse cx="220" cy="330" fill="#fff" rx="220" ry="330" transform="matrix(-.86603 -.5 -.5 .86603 655 274)"/><path fill="#fff" d="M481.188 823.5c-4.792 0-9.396-.812-13.813-2.438-4.458-1.583-8.437-4.166-11.937-7.75-3.5-3.541-6.271-8.229-8.313-14.062-2.042-5.833-3.063-13-3.063-21.5 0-10.458 1.563-19.438 4.688-26.938 3.083-7.458 7.458-13.187 13.125-17.187 5.625-4 12.271-6 19.937-6 6.209 0 11.709 1.208 16.5 3.625 4.75 2.458 8.584 5.771 11.5 9.938 2.876 4.166 4.626 8.812 5.25 13.937h-19.374c-.75-3.292-2.355-5.896-4.813-7.813-2.458-1.874-5.479-2.812-9.063-2.812-6.041 0-10.624 2.646-13.75 7.938-3.166 5.333-4.75 12.541-4.75 21.624h.626c2.083-4.083 5.229-7.291 9.437-9.624 4.208-2.334 8.854-3.5 13.937-3.5 5.5 0 10.417 1.291 14.75 3.874 4.334 2.584 7.75 6.146 10.25 10.688 2.459 4.542 3.688 9.708 3.688 15.5 0 6.292-1.458 11.896-4.375 16.812-2.917 4.917-6.979 8.771-12.187 11.563-5.25 2.792-11.334 4.167-18.25 4.125Zm15.75-32c0-4.625-1.48-8.5-4.438-11.625-3-3.125-6.771-4.687-11.312-4.687-3.042 0-5.75.729-8.126 2.187a16.053 16.053 0 0 0-5.687 6c-1.417 2.5-2.125 5.25-2.125 8.25 0 2.958.688 5.667 2.062 8.125 1.376 2.458 3.25 4.417 5.626 5.875 2.374 1.5 5.083 2.25 8.124 2.25 4.542 0 8.334-1.583 11.376-4.75 3-3.125 4.5-7 4.5-11.625Z"/><path fill="#0084F4" d="M297.402 332.281c10.482 0 20.554 1.778 30.215 5.332 9.753 3.464 18.457 9.115 26.113 16.953 7.657 7.748 13.718 18.002 18.184 30.762 4.466 12.761 6.699 28.438 6.699 47.031 0 22.878-3.418 42.52-10.254 58.926-6.744 16.315-16.315 28.848-28.711 37.598-12.304 8.75-26.842 13.125-43.613 13.125-13.581 0-25.612-2.643-36.094-7.93-10.39-5.377-18.776-12.624-25.156-21.738-6.289-9.115-10.117-19.278-11.484-30.488h42.383c1.64 7.2 5.149 12.897 10.527 17.089 5.378 4.102 11.986 6.153 19.824 6.153 13.216 0 23.242-5.788 30.078-17.364 6.927-11.666 10.391-27.434 10.391-47.304h-1.367c-4.558 8.932-11.439 15.95-20.645 21.054-9.206 5.105-19.368 7.657-30.488 7.657-12.031 0-22.787-2.826-32.266-8.477s-16.953-13.444-22.422-23.379c-5.377-9.935-8.066-21.237-8.066-33.906 0-13.763 3.19-26.022 9.57-36.777 6.381-10.756 15.267-19.187 26.66-25.293 11.485-6.107 24.792-9.115 39.922-9.024Zm-34.453 70c0 10.117 3.236 18.594 9.707 25.43 6.563 6.836 14.811 10.254 24.746 10.254 6.654 0 12.578-1.595 17.774-4.785 5.286-3.282 9.433-7.657 12.441-13.125 3.099-5.469 4.649-11.485 4.649-18.047 0-6.472-1.504-12.396-4.512-17.774-3.008-5.377-7.109-9.661-12.305-12.851-5.195-3.281-11.12-4.922-17.773-4.922-9.935 0-18.229 3.463-24.883 10.391-6.563 6.836-9.844 15.312-9.844 25.429Z"/><path fill="#fff" d="M118.812 76.5c4.792 0 9.396.813 13.813 2.438 4.458 1.583 8.437 4.166 11.937 7.75 3.5 3.541 6.271 8.229 8.313 14.062 2.042 5.833 3.063 13 3.063 21.5 0 10.458-1.563 19.438-4.688 26.938-3.083 7.458-7.458 13.187-13.125 17.187-5.625 4-12.271 6-19.937 6-6.209 0-11.709-1.208-16.5-3.625-4.75-2.458-8.584-5.771-11.5-9.938-2.876-4.166-4.626-8.812-5.25-13.937h19.374c.75 3.292 2.355 5.896 4.813 7.813 2.458 1.874 5.479 2.812 9.063 2.812 6.041 0 10.624-2.646 13.75-7.938 3.166-5.333 4.75-12.541 4.75-21.624h-.626c-2.083 4.083-5.229 7.291-9.437 9.624-4.208 2.334-8.854 3.5-13.937 3.5-5.5 0-10.417-1.291-14.75-3.874-4.334-2.584-7.75-6.146-10.25-10.688C85.228 119.958 84 114.792 84 109c0-6.292 1.458-11.896 4.375-16.813 2.917-4.916 6.98-8.77 12.187-11.562 5.25-2.792 11.334-4.167 18.25-4.125Zm-15.75 32c0 4.625 1.48 8.5 4.438 11.625 3 3.125 6.771 4.687 11.312 4.687 3.042 0 5.75-.729 8.126-2.187 2.416-1.5 4.312-3.5 5.687-6 1.417-2.5 2.125-5.25 2.125-8.25 0-2.958-.688-5.667-2.062-8.125-1.376-2.458-3.25-4.417-5.626-5.875-2.374-1.5-5.083-2.25-8.124-2.25-4.542 0-8.334 1.583-11.376 4.75-3 3.125-4.5 7-4.5 11.625Z"/></g><defs><clipPath id="a"><path fill="#fff" d="M0 0h600v900H0z"/></clipPath></defs></svg>