<svg xmlns="http://www.w3.org/2000/svg" width="600" height="900" fill="none"><g clip-path="url(#a)"><rect width="600" height="900" fill="#fff" rx="100"/><rect width="540" height="840" x="30" y="30" fill="#0084F4" rx="100"/><ellipse cx="220" cy="330" fill="#fff" rx="220" ry="330" transform="matrix(-.86603 -.5 -.5 .86603 655 274)"/><g clip-path="url(#b)"><circle cx="300" cy="450" r="160" fill="#0084F4"/><circle cx="300" cy="450" r="117.333" fill="#fff"/><path stroke="#0084F4" stroke-width="43.733" d="m200.231 551.912 201.6-202.667"/></g><g clip-path="url(#c)"><circle cx="130" cy="130" r="70" fill="#fff"/><circle cx="130" cy="130" r="51.333" fill="#0084F4"/><path stroke="#fff" stroke-width="19.133" d="m86.351 174.587 88.2-88.667"/></g><g clip-path="url(#d)"><circle cx="470" cy="770" r="70" fill="#fff"/><circle cx="470" cy="770" r="51.333" fill="#0084F4"/><path stroke="#fff" stroke-width="19.133" d="m426.351 814.586 88.2-88.666"/></g></g><defs><clipPath id="a"><path fill="#fff" d="M0 0h600v900H0z"/></clipPath><clipPath id="b"><path fill="#fff" d="M140 290h320v320H140z"/></clipPath><clipPath id="c"><path fill="#fff" d="M60 60h140v140H60z"/></clipPath><clipPath id="d"><path fill="#fff" d="M400 700h140v140H400z"/></clipPath></defs></svg>