<svg xmlns="http://www.w3.org/2000/svg" width="600" height="900" fill="none" viewBox="0 0 600 900">
  <g clip-path="url(#a)">
    <rect width="600" height="900" x="-1" fill="#fff" rx="100"/>
    <rect width="540" height="840" x="29" y="30" fill="url(#b)" rx="100"/>
    <ellipse cx="220" cy="330" fill="#fff" rx="220" ry="330" transform="matrix(-.86603 -.5 -.5 .86603 655 274)"/>
    <path fill="url(#c)" d="m62.468 483.44 29.769-13.253 65.65 62.794 1.304-.58-2.66-90.84 29.999-13.356 50.897 114.318-23.707 10.555-33.135-74.422-.844.376 3.204 87.104-16.035 7.14-62.35-60.955-.997.444 33.203 74.575-23.401 10.419L62.468 483.44Zm231.283 35.845c-10.128 4.509-20.257 6.261-30.388 5.255-10.132-1.005-19.497-4.833-28.097-11.485-8.6-6.651-15.655-16.166-21.166-28.544-5.557-12.48-7.93-24.141-7.118-34.983.812-10.841 4.233-20.363 10.265-28.565 6.032-8.201 14.112-14.556 24.239-19.065 10.128-4.51 20.232-6.25 30.312-5.222 10.131 1.005 19.496 4.834 28.096 11.485 8.6 6.651 15.678 16.217 21.235 28.698 5.557 12.48 7.929 24.141 7.118 34.983-.835 10.79-4.268 20.286-10.3 28.488-6.003 8.127-14.069 14.446-24.196 18.955Zm-55.177-45.671c5.375 12.071 12.12 20.131 20.235 24.179 8.166 4.025 16.648 4.079 25.445.162 8.747-3.894 14.331-10.21 16.752-18.95 2.473-8.762 1.023-19.178-4.352-31.25-5.397-12.122-12.179-20.196-20.345-24.221-8.138-4.099-16.58-4.201-25.326-.307-8.798 3.917-14.422 10.282-16.872 19.095-2.422 8.739-.934 19.17 4.463 31.292Zm154.91-137.551 50.898 114.318-20.946 9.325-81.648-49.789-.92.41 32.007 71.89-24.091 10.726-50.898-114.318 21.176-9.428 81.341 49.926.997-.444-32.007-71.89 24.091-10.726Zm107.297 91.046c-10.127 4.509-20.256 6.26-30.388 5.255-10.131-1.005-19.496-4.833-28.096-11.485-8.6-6.651-15.655-16.166-21.167-28.544-5.556-12.48-7.929-24.141-7.117-34.983.811-10.841 4.233-20.363 10.265-28.565 6.032-8.201 14.112-14.556 24.239-19.066 10.128-4.509 20.232-6.249 30.312-5.221 10.131 1.005 19.496 4.834 28.096 11.485 8.6 6.651 15.678 16.217 21.235 28.698 5.556 12.48 7.929 24.141 7.117 34.982-.834 10.791-4.267 20.287-10.299 28.488-6.004 8.128-14.069 14.446-24.197 18.956Zm-55.176-45.671c5.375 12.071 12.119 20.131 20.234 24.179 8.166 4.025 16.648 4.079 25.446.162 8.746-3.894 14.331-10.211 16.752-18.95 2.473-8.762 1.022-19.178-4.352-31.25-5.397-12.122-12.179-20.196-20.345-24.221-8.138-4.099-16.58-4.202-25.326-.307-8.798 3.917-14.422 10.282-16.872 19.095-2.422 8.739-.934 19.17 4.463 31.292Z" style="mix-blend-mode:hard-light"/>
  </g>
  <defs>
    <linearGradient id="b" x1="299" x2="299" y1="30" y2="870" gradientUnits="userSpaceOnUse">
      <stop stop-color="#300"/>
      <stop offset=".33" stop-color="#030"/>
      <stop offset=".66" stop-color="#003"/>
      <stop offset="1" stop-color="#330"/>
    </linearGradient>
    <linearGradient id="c" x1="585.459" x2="244.097" y1="451.315" y2="717.488" gradientUnits="userSpaceOnUse">
      <stop stop-color="#330"/>
      <stop offset=".34" stop-color="#003"/>
      <stop offset=".67" stop-color="#030"/>
      <stop offset="1" stop-color="#300"/>
    </linearGradient>
    <clipPath id="a">
      <path fill="#fff" d="M0 0h600v900H0z"/>
    </clipPath>
  </defs>
</svg>
