<svg xmlns="http://www.w3.org/2000/svg" width="600" height="900" fill="none" viewBox="0 0 600 900">
  <g clip-path="url(#a)">
    <path fill="#fff" fill-rule="evenodd" d="M99 0C43.772 0-1 44.772-1 100v700c0 55.228 44.772 100 100 100h400c55.228 0 100-44.772 100-100V100C599 44.772 554.228 0 499 0H99Zm30 30C73.772 30 29 74.772 29 130v640c0 55.228 44.772 100 100 100h340c55.228 0 100-44.772 100-100V130c0-55.228-44.772-100-100-100H129Z" clip-rule="evenodd"/>
    <path fill="#fff" fill-rule="evenodd" d="M134.474 735.577C29.25 674.825 17.822 497.625 108.949 339.788 200.076 181.952 359.25 103.249 464.474 164 569.699 224.751 581.127 401.952 490 559.788c-91.127 157.837-250.301 236.54-355.526 175.789Zm-42.237-265.39-29.77 13.253 50.898 114.319 23.401-10.419-33.203-74.575.997-.445 62.35 60.956 16.035-7.14-3.204-87.104.844-.376 33.135 74.422 23.707-10.555-50.897-114.319-29.999 13.357 2.66 90.84-1.304.58-65.65-62.794Zm171.126 54.353c10.131 1.006 20.26-.746 30.388-5.255 10.127-4.51 18.193-10.828 24.196-18.955 6.032-8.202 9.465-17.698 10.3-28.488.811-10.842-1.561-22.503-7.118-34.983-5.557-12.481-12.635-22.047-21.235-28.698s-17.965-10.48-28.096-11.485c-10.08-1.028-20.184.712-30.312 5.222-10.127 4.509-18.207 10.864-24.239 19.065-6.032 8.202-9.453 17.724-10.265 28.565-.812 10.842 1.561 22.503 7.118 34.983 5.511 12.378 12.566 21.893 21.166 28.544 8.6 6.652 17.965 10.48 28.097 11.485Zm-4.554-26.747c-8.115-4.048-14.86-12.108-20.235-24.179-5.397-12.122-6.885-22.553-4.463-31.292 2.45-8.813 8.074-15.178 16.872-19.095 8.746-3.894 17.188-3.792 25.326.307 8.166 4.025 14.948 12.099 20.345 24.221 5.375 12.072 6.825 22.488 4.353 31.25-2.422 8.74-8.006 15.056-16.753 18.95-8.797 3.917-17.279 3.863-25.445-.162Zm185.573-47.412-50.898-114.318-24.091 10.726 32.007 71.89-.997.444-81.341-49.926-21.176 9.428 50.898 114.318 24.091-10.726-32.007-71.89.92-.41 81.648 49.789 20.946-9.325Zm26.011-18.017c10.132 1.005 20.261-.746 30.388-5.255 10.128-4.51 18.193-10.828 24.197-18.956 6.032-8.201 9.465-17.697 10.299-28.488.812-10.841-1.561-22.502-7.117-34.982-5.557-12.481-12.635-22.047-21.235-28.698s-17.965-10.48-28.096-11.485c-10.08-1.028-20.184.712-30.312 5.221-10.127 4.51-18.207 10.865-24.239 19.066-6.032 8.202-9.454 17.724-10.265 28.565-.812 10.842 1.561 22.503 7.117 34.983 5.512 12.378 12.567 21.893 21.167 28.544 8.6 6.652 17.965 10.48 28.096 11.485Zm-4.554-26.747c-8.115-4.048-14.859-12.108-20.234-24.179-5.397-12.122-6.885-22.553-4.463-31.292 2.45-8.813 8.074-15.178 16.872-19.095 8.746-3.895 17.188-3.792 25.326.307 8.166 4.025 14.948 12.099 20.345 24.221 5.374 12.072 6.825 22.488 4.352 31.25-2.421 8.739-8.005 15.056-16.752 18.95-8.798 3.917-17.279 3.863-25.446-.162Z" clip-rule="evenodd"/>
  </g>
  <defs>
    <clipPath id="a">
      <path fill="#fff" d="M0 0h600v900H0z"/>
    </clipPath>
  </defs>
</svg>
