<svg xmlns="http://www.w3.org/2000/svg" width="600" height="900" fill="none"><g clip-path="url(#a)"><rect width="600" height="900" fill="#fff" rx="100"/><rect width="540" height="840" x="30" y="30" fill="#30A507" rx="100"/><ellipse cx="220" cy="330" fill="#fff" rx="220" ry="330" transform="matrix(-.86603 -.5 -.5 .86603 655 274)"/><path fill="#fff" d="M512.812 729v14.125l-33.187 30.75c-4.208 4.083-7.417 7.625-9.625 10.625s-3.312 6.333-3.312 10c0 4.083 1.354 7.312 4.062 9.688 2.667 2.374 6.042 3.562 10.125 3.562 4.292 0 7.729-1.292 10.313-3.875 2.541-2.542 3.812-6.042 3.812-10.5h18.688c0 6.125-1.396 11.417-4.188 15.875-2.792 4.5-6.646 7.979-11.562 10.438-4.959 2.458-10.688 3.687-17.188 3.687-6.667 0-12.479-1.187-17.438-3.563-4.958-2.333-8.812-5.583-11.562-9.75-2.75-4.124-4.125-8.895-4.125-14.312 0-3.5.708-6.958 2.125-10.375 1.375-3.375 3.812-7.146 7.312-11.313 3.5-4.166 8.459-9.166 14.876-15L485.5 745.75v-.688h-39.125V729h66.437Z"/><path fill="#30A507" d="M228.223 539v-30.898l72.597-67.266c9.206-8.932 16.224-16.68 21.055-23.242 4.831-6.563 7.246-13.854 7.246-21.875 0-8.933-2.962-15.996-8.887-21.192-5.833-5.195-13.216-7.793-22.148-7.793-9.388 0-16.908 2.826-22.559 8.477-5.56 5.56-8.339 13.216-8.339 22.969h-40.879c0-13.399 3.053-24.974 9.16-34.727 6.107-9.844 14.538-17.454 25.293-22.832 10.846-5.378 23.379-8.066 37.597-8.066 14.584 0 27.299 2.597 38.145 7.793 10.846 5.104 19.277 12.213 25.293 21.328 6.015 9.023 9.023 19.459 9.023 31.308 0 7.657-1.549 15.222-4.648 22.696-3.008 7.382-8.34 15.631-15.996 24.746-7.656 9.114-18.503 20.052-32.539 32.812l-29.668 29.121v1.504h85.586V539H228.223Z"/><path fill="#fff" d="M87.188 171v-14.125l33.187-30.75c4.208-4.083 7.417-7.625 9.625-10.625s3.312-6.333 3.312-10c0-4.083-1.354-7.313-4.062-9.688-2.667-2.374-6.042-3.562-10.125-3.562-4.292 0-7.729 1.292-10.313 3.875-2.541 2.542-3.812 6.042-3.812 10.5H86.312c0-6.125 1.396-11.417 4.188-15.875 2.792-4.5 6.646-7.98 11.562-10.438 4.959-2.458 10.688-3.687 17.188-3.687 6.667 0 12.479 1.188 17.438 3.563 4.958 2.333 8.812 5.583 11.562 9.75 2.75 4.124 4.125 8.895 4.125 14.312 0 3.5-.708 6.958-2.125 10.375-1.375 3.375-3.812 7.146-7.312 11.313-3.5 4.166-8.459 9.166-14.876 15L114.5 154.25v.688h39.125V171H87.187Z"/></g><defs><clipPath id="a"><path fill="#fff" d="M0 0h600v900H0z"/></clipPath></defs></svg>