<svg xmlns="http://www.w3.org/2000/svg" width="600" height="900" fill="none"><g clip-path="url(#a)"><rect width="600" height="900" fill="#fff" rx="100"/><rect width="540" height="840" x="30" y="30" fill="#30A507" rx="100"/><ellipse cx="220" cy="330" fill="#fff" rx="220" ry="330" transform="matrix(-.86603 -.5 -.5 .86603 655 274)"/><path fill="#fff" d="M517.25 745.375v15.437l-38.875 61.313H453.75v-61h-11.562v-15.75h11.562V729h18.812v16.375h44.688Zm-19.812 15.75h-25.25v39.5h.75l24.5-38.75v-.75Z"/><path fill="#30A507" d="M218.516 503.18v-33.77l85.039-134.121h53.867v133.438h25.293v34.453h-25.293V539H316.27v-35.82h-97.754Zm43.339-34.453h55.235V382.32h-1.641l-53.594 84.766v1.641Z"/><path fill="#fff" d="M82.75 154.625v-15.437l38.875-61.313h24.625v61h11.562v15.75H146.25V171h-18.812v-16.375H82.75Zm19.812-15.75h25.25v-39.5h-.75l-24.5 38.75v.75Z"/></g><defs><clipPath id="a"><path fill="#fff" d="M0 0h600v900H0z"/></clipPath></defs></svg>