<svg xmlns="http://www.w3.org/2000/svg" width="600" height="900" fill="none"><g clip-path="url(#a)"><rect width="600" height="900" fill="#fff" rx="100"/><rect width="540" height="840" x="30" y="30" fill="#30A507" rx="100"/><ellipse cx="220" cy="330" fill="#fff" rx="220" ry="330" transform="matrix(-.86603 -.5 -.5 .86603 655 274)"/><path fill="#fff" d="M480.062 727.75c7.042 0 13.271 1.146 18.688 3.438 5.417 2.291 9.667 5.416 12.75 9.374 3.083 3.959 4.625 8.459 4.625 13.5 0 3.876-.875 7.438-2.625 10.688a24.211 24.211 0 0 1-7.25 8.125c-3.083 2.167-6.521 3.563-10.312 4.187v.563c5 1.042 9.062 3.479 12.187 7.313 3.083 3.833 4.625 8.291 4.625 13.374 0 4.834-1.417 9.126-4.25 12.876-2.833 3.791-6.708 6.77-11.625 8.937s-10.521 3.25-16.813 3.25c-6.291 0-11.895-1.104-16.812-3.313-4.917-2.166-8.792-5.145-11.625-8.937-2.833-3.75-4.25-8.021-4.25-12.813 0-5.083 1.583-9.541 4.75-13.374 3.125-3.834 7.125-6.271 12-7.313v-.563A24.128 24.128 0 0 1 454 772.875c-3.083-2.167-5.521-4.875-7.312-8.125-1.834-3.25-2.75-6.812-2.75-10.688 0-5.041 1.562-9.541 4.687-13.5 3.083-3.958 7.354-7.083 12.813-9.374 5.416-2.292 11.624-3.438 18.624-3.438Zm13.5 68.5c0-3.667-1.27-6.667-3.812-9s-5.771-3.5-9.688-3.5c-3.874 0-7.083 1.167-9.624 3.5-2.584 2.333-3.876 5.333-3.876 9 0 3.625 1.271 6.562 3.813 8.812 2.5 2.292 5.729 3.438 9.687 3.438 4 0 7.25-1.125 9.75-3.375s3.75-5.208 3.75-8.875Zm2.126-40.625c0-3.958-1.438-7.187-4.313-9.687-2.875-2.5-6.646-3.75-11.313-3.75-4.666 0-8.437 1.25-11.312 3.75s-4.312 5.729-4.312 9.687c0 4 1.479 7.292 4.437 9.875s6.687 3.875 11.187 3.875c4.542 0 8.292-1.292 11.25-3.875 2.917-2.542 4.376-5.833 4.376-9.875Z"/><path fill="#30A507" d="M299.863 541.734c-15.403 0-29.03-2.506-40.879-7.519-11.849-5.013-21.145-11.849-27.89-20.508-6.745-8.659-10.117-18.503-10.117-29.531 0-8.477 1.914-16.27 5.742-23.379 3.919-7.109 9.205-13.034 15.859-17.774 6.745-4.739 14.264-7.793 22.559-9.16v-1.23c-10.938-2.279-19.825-7.611-26.66-15.996-6.745-8.386-10.118-18.138-10.118-29.258 0-10.573 3.099-19.961 9.297-28.164 6.198-8.294 14.675-14.811 25.43-19.551 10.755-4.74 23.014-7.109 36.777-7.109 13.763 0 26.022 2.415 36.778 7.246 10.755 4.739 19.231 11.256 25.429 19.551 6.198 8.203 9.297 17.545 9.297 28.027 0 11.12-3.463 20.872-10.39 29.258-6.836 8.385-15.586 13.717-26.25 15.996v1.23c8.112 1.367 15.494 4.421 22.148 9.16 6.745 4.74 12.077 10.665 15.996 17.774 4.011 7.109 6.016 14.902 6.016 23.379 0 11.028-3.418 20.872-10.254 29.531-6.745 8.659-16.087 15.495-28.028 20.508-11.848 5.013-25.429 7.519-40.742 7.519Zm-29.531-149.843c0 8.02 2.78 14.583 8.34 19.687 5.56 5.104 12.624 7.656 21.191 7.656 8.477 0 15.495-2.552 21.055-7.656 5.651-5.104 8.477-11.667 8.477-19.687 0-7.93-2.78-14.356-8.34-19.278-5.469-5.013-12.533-7.519-21.192-7.519-8.75 0-15.859 2.461-21.328 7.383-5.469 4.921-8.203 11.393-8.203 19.414Zm-4.648 88.867c0 8.659 3.144 15.722 9.433 21.191 6.289 5.469 14.538 8.203 24.746 8.203 10.209 0 18.457-2.734 24.746-8.203 6.289-5.469 9.434-12.532 9.434-21.191 0-8.75-3.236-15.951-9.707-21.602s-14.629-8.476-24.473-8.476c-9.935 0-18.138 2.825-24.609 8.476-6.38 5.56-9.57 12.761-9.57 21.602Z"/><path fill="#fff" d="M119.938 172.25c-7.042 0-13.271-1.146-18.688-3.438-5.417-2.291-9.667-5.416-12.75-9.374-3.083-3.959-4.625-8.459-4.625-13.5 0-3.876.875-7.438 2.625-10.688a24.211 24.211 0 0 1 7.25-8.125c3.083-2.167 6.521-3.563 10.312-4.187v-.563c-5-1.042-9.062-3.479-12.187-7.313-3.083-3.833-4.625-8.291-4.625-13.374 0-4.834 1.417-9.126 4.25-12.876 2.833-3.791 6.708-6.77 11.625-8.937s10.521-3.25 16.813-3.25c6.291 0 11.895 1.104 16.812 3.313 4.917 2.166 8.792 5.145 11.625 8.937 2.833 3.75 4.25 8.02 4.25 12.813 0 5.083-1.583 9.541-4.75 13.374-3.125 3.834-7.125 6.271-12 7.313v.563A24.128 24.128 0 0 1 146 127.125c3.083 2.167 5.521 4.875 7.312 8.125 1.834 3.25 2.75 6.812 2.75 10.688 0 5.041-1.562 9.541-4.687 13.5-3.083 3.958-7.354 7.083-12.813 9.374-5.416 2.292-11.624 3.438-18.624 3.438Zm-13.5-68.5c0 3.667 1.27 6.667 3.812 9s5.771 3.5 9.688 3.5c3.874 0 7.083-1.167 9.624-3.5 2.584-2.333 3.876-5.333 3.876-9 0-3.625-1.271-6.563-3.813-8.813-2.5-2.291-5.729-3.437-9.687-3.437-4 0-7.25 1.125-9.75 3.375s-3.75 5.208-3.75 8.875Zm-2.126 40.625c0 3.958 1.438 7.187 4.313 9.687 2.875 2.5 6.646 3.75 11.313 3.75 4.666 0 8.437-1.25 11.312-3.75s4.312-5.729 4.312-9.687c0-4-1.479-7.292-4.437-9.875s-6.687-3.875-11.187-3.875c-4.542 0-8.292 1.292-11.25 3.875-2.917 2.542-4.376 5.833-4.376 9.875Z"/></g><defs><clipPath id="a"><path fill="#fff" d="M0 0h600v900H0z"/></clipPath></defs></svg>