<svg xmlns="http://www.w3.org/2000/svg" width="600" height="900" fill="none"><g clip-path="url(#a)"><rect width="600" height="900" fill="#fff" rx="100"/><rect width="540" height="840" x="30" y="30" fill="#FB1907" rx="100"/><ellipse cx="220" cy="330" fill="#fff" rx="220" ry="330" transform="matrix(-.86603 -.5 -.5 .86603 655 274)"/><path fill="#fff" d="M480.312 727.75c6.792 0 12.834 1.167 18.126 3.5 5.291 2.333 9.458 5.562 12.5 9.688 3.041 4.166 4.604 8.958 4.687 14.374h-19.813c-.124-3.416-1.666-6.166-4.624-8.25-2.959-2.041-6.605-3.062-10.938-3.062-4.5 0-8.167 1.146-11 3.438-2.875 2.333-4.312 5.333-4.312 9 0 3.75 1.52 6.812 4.562 9.187 3.042 2.375 7.208 3.563 12.5 3.563h8.688v14.5H482c-4.458 0-8.083 1.124-10.875 3.374-2.833 2.25-4.25 5.209-4.25 8.876 0 3.5 1.229 6.333 3.687 8.5 2.417 2.208 5.605 3.312 9.563 3.312 4.042 0 7.5-1.062 10.375-3.188 2.833-2.083 4.292-4.895 4.375-8.437h18.875c-.083 5.375-1.604 10.104-4.562 14.187-2.959 4.084-6.959 7.271-12 9.563-5.084 2.333-10.813 3.5-17.188 3.5-6.417 0-12.021-1.167-16.812-3.5-4.834-2.333-8.584-5.479-11.25-9.437-2.709-3.959-4.063-8.396-4.063-13.313 0-5.208 1.625-9.563 4.875-13.063 3.25-3.458 7.479-5.666 12.688-6.624v-.688c-6.834-.875-12.021-3.25-15.563-7.125-3.583-3.875-5.375-8.708-5.375-14.5 0-5.292 1.542-10 4.625-14.125 3.042-4.125 7.271-7.375 12.687-9.75 5.376-2.333 11.542-3.5 18.5-3.5Z"/><path fill="#FB1907" d="M299.316 541.734c-14.856 0-28.073-2.552-39.648-7.656-11.576-5.104-20.69-12.168-27.344-21.191-6.653-9.115-10.071-19.597-10.254-31.446h43.34c.274 7.474 3.646 13.49 10.117 18.047 6.472 4.466 14.447 6.7 23.926 6.7 9.844 0 17.865-2.507 24.063-7.52 6.289-5.104 9.433-11.667 9.433-19.688 0-8.203-3.327-14.902-9.98-20.097-6.654-5.195-15.768-7.793-27.344-7.793h-19.004v-31.719h19.004c9.753 0 17.682-2.461 23.789-7.383 6.198-4.922 9.297-11.393 9.297-19.414 0-7.656-2.689-13.854-8.066-18.594-5.287-4.83-12.26-7.246-20.918-7.246-8.842 0-16.407 2.325-22.696 6.973-6.198 4.557-9.388 10.71-9.57 18.457h-41.289c.182-11.758 3.509-22.103 9.98-31.035 6.472-8.932 15.222-15.905 26.25-20.918 11.12-5.104 23.653-7.656 37.598-7.656 14.036 0 26.296 2.552 36.777 7.656 10.573 5.104 18.776 11.986 24.61 20.644 5.924 8.659 8.886 18.366 8.886 29.122 0 11.393-3.554 20.918-10.664 28.574-7.109 7.565-16.36 12.396-27.754 14.492v1.504c14.948 1.914 26.296 7.109 34.043 15.586 7.839 8.476 11.758 19.049 11.758 31.719 0 11.575-3.372 21.875-10.117 30.898-6.654 9.023-15.905 16.133-27.754 21.328-11.758 5.104-25.247 7.656-40.469 7.656Z"/><path fill="#fff" d="M119.688 172.25c-6.792 0-12.834-1.167-18.126-3.5-5.291-2.333-9.458-5.562-12.5-9.688-3.041-4.166-4.604-8.958-4.687-14.374h19.813c.124 3.416 1.666 6.166 4.624 8.25 2.959 2.041 6.605 3.062 10.938 3.062 4.5 0 8.167-1.146 11-3.438 2.875-2.333 4.312-5.333 4.312-9 0-3.75-1.52-6.812-4.562-9.187-3.042-2.375-7.208-3.563-12.5-3.563h-8.688v-14.5H118c4.458 0 8.083-1.124 10.875-3.374 2.833-2.25 4.25-5.209 4.25-8.876 0-3.5-1.229-6.333-3.687-8.5-2.417-2.208-5.605-3.312-9.563-3.312-4.042 0-7.5 1.063-10.375 3.188-2.833 2.083-4.292 4.895-4.375 8.437H86.25c.083-5.375 1.604-10.104 4.563-14.188 2.958-4.083 6.958-7.27 11.999-9.562 5.084-2.333 10.813-3.5 17.188-3.5 6.417 0 12.021 1.167 16.812 3.5 4.834 2.333 8.584 5.48 11.25 9.438 2.709 3.958 4.063 8.395 4.063 13.312 0 5.208-1.625 9.563-4.875 13.063-3.25 3.458-7.479 5.666-12.688 6.624v.688c6.834.875 12.021 3.25 15.563 7.125 3.583 3.875 5.375 8.708 5.375 14.5 0 5.292-1.542 10-4.625 14.125-3.042 4.125-7.271 7.375-12.687 9.75-5.376 2.333-11.542 3.5-18.5 3.5Z"/></g><defs><clipPath id="a"><path fill="#fff" d="M0 0h600v900H0z"/></clipPath></defs></svg>