<svg xmlns="http://www.w3.org/2000/svg" width="600" height="900" fill="none"><g clip-path="url(#a)"><rect width="600" height="900" fill="#fff" rx="100"/><rect width="540" height="840" x="30" y="30" fill="#FB1907" rx="100"/><ellipse cx="220" cy="330" fill="#fff" rx="220" ry="330" transform="matrix(-.86603 -.5 -.5 .86603 655 274)"/><path fill="#fff" d="M479.75 727.75c6.417 0 12.167 1.167 17.25 3.5 5.042 2.375 9.021 5.646 11.938 9.812 2.916 4.167 4.437 8.917 4.562 14.25h-19.125c-.167-3.583-1.667-6.5-4.5-8.75-2.833-2.208-6.208-3.312-10.125-3.312-4.583 0-8.333 1.5-11.25 4.5-2.958 3.042-4.438 6.979-4.438 11.812 0 4.876 1.5 8.855 4.5 11.938 2.959 3.083 6.792 4.625 11.5 4.625 2.792 0 5.459-.563 8-1.687 2.5-1.126 4.459-2.646 5.876-4.563L511.562 773l-4.437 49.125h-56.937V806h40.687l2.375-23.312h-.5c-1.667 2.291-4.146 4.187-7.438 5.687-3.291 1.5-6.979 2.25-11.062 2.25-5.625 0-10.625-1.313-15-3.937-4.417-2.626-7.875-6.23-10.375-10.813-2.542-4.583-3.813-9.854-3.813-15.813 0-6.25 1.459-11.812 4.376-16.687 2.916-4.875 6.979-8.708 12.187-11.5 5.208-2.75 11.25-4.125 18.125-4.125Z"/><path fill="#FB1907" d="M300.547 541.734c-14.037 0-26.615-2.552-37.735-7.656-11.028-5.195-19.733-12.35-26.113-21.465-6.38-9.114-9.707-19.505-9.98-31.172h41.836c.364 7.839 3.646 14.219 9.843 19.141 6.198 4.831 13.581 7.246 22.149 7.246 10.026 0 18.229-3.281 24.609-9.844 6.472-6.653 9.707-15.267 9.707-25.839 0-10.665-3.281-19.369-9.843-26.114-6.472-6.745-14.857-10.117-25.157-10.117-6.106 0-11.94 1.231-17.5 3.691-5.468 2.461-9.752 5.788-12.851 9.981l-38.555-6.836 9.707-107.461h124.551v35.273h-89.004l-5.195 50.997h1.093c3.646-5.013 9.069-9.161 16.27-12.442 7.2-3.281 15.267-4.922 24.199-4.922 12.305 0 23.242 2.871 32.813 8.614 9.661 5.742 17.226 13.626 22.695 23.652 5.56 10.026 8.34 21.556 8.34 34.59 0 13.672-3.19 25.84-9.571 36.504-6.38 10.664-15.266 19.049-26.66 25.156-11.393 6.016-24.609 9.023-39.648 9.023Z"/><path fill="#fff" d="M120.25 172.25c-6.417 0-12.167-1.167-17.25-3.5-5.042-2.375-9.02-5.646-11.938-9.812-2.916-4.167-4.437-8.917-4.562-14.25h19.125c.167 3.583 1.667 6.5 4.5 8.75 2.833 2.208 6.208 3.312 10.125 3.312 4.583 0 8.333-1.5 11.25-4.5 2.958-3.042 4.438-6.979 4.438-11.812 0-4.876-1.5-8.855-4.5-11.938-2.959-3.083-6.792-4.625-11.5-4.625-2.792 0-5.459.563-8 1.687-2.5 1.126-4.459 2.646-5.876 4.563L88.438 127l4.437-49.125h56.937V94h-40.687l-2.375 23.312h.5c1.667-2.291 4.146-4.187 7.438-5.687 3.291-1.5 6.979-2.25 11.062-2.25 5.625 0 10.625 1.313 15 3.937 4.417 2.626 7.875 6.23 10.375 10.813 2.542 4.583 3.813 9.854 3.813 15.813 0 6.25-1.459 11.812-4.376 16.687-2.916 4.875-6.979 8.708-12.187 11.5-5.208 2.75-11.25 4.125-18.125 4.125Z"/></g><defs><clipPath id="a"><path fill="#fff" d="M0 0h600v900H0z"/></clipPath></defs></svg>