<svg xmlns="http://www.w3.org/2000/svg" width="600" height="900" fill="none"><g clip-path="url(#a)"><rect width="600" height="900" fill="#fff" rx="100"/><rect width="540" height="840" x="30" y="30" fill="#30A507" rx="100"/><ellipse cx="220" cy="330" fill="#fff" rx="220" ry="330" transform="matrix(-.86603 -.5 -.5 .86603 655 274)"/><g clip-path="url(#b)"><ellipse cx="220" cy="330" fill="#fff" rx="220" ry="330" transform="matrix(-.86603 -.5 -.5 .86603 655 274)"/><mask id="c" width="425" height="516" x="88" y="192" maskUnits="userSpaceOnUse" style="mask-type:alpha"><ellipse cx="184.8" cy="277.2" fill="#fff" rx="184.8" ry="277.2" transform="scale(1 -1) rotate(-30 -1113.692 -302.53)"/></mask><g mask="url(#c)"><path fill="#FB1907" d="M266-90 526.077 60.155 301 450 40.923 299.845 266-90Z"/><path fill="#30A507" d="M526.125 60.072 785.808 210 560.683 599.928 301 450 526.125 60.072Z"/><path fill="#0084F4" d="m301 450 259.808 150-225 389.711L76 839.711 301 450Z"/><path fill="#F5CC0C" d="M41.048 299.917 301 450 75.952 839.795-184 689.711 41.048 299.917Z"/><path fill="#fff" d="m437 183 25.98 15-300 519.615-25.98-15z"/><path fill="#fff" d="m119 363 15-25.98 346.41 200-15 25.98z"/></g></g><g clip-path="url(#d)"><ellipse cx="55" cy="82.5" fill="#fff" rx="55" ry="82.5" transform="scale(-1 1) rotate(-30 76.928 448.113)"/><mask id="e" width="107" height="129" x="72" y="78" maskUnits="userSpaceOnUse" style="mask-type:alpha"><ellipse cx="46.2" cy="69.3" fill="#fff" rx="46.2" ry="69.3" transform="scale(1 -1) rotate(-30 -309.403 -183.934)"/></mask><g mask="url(#e)"><path fill="#FB1907" d="m116.5 7.5 65.019 37.539L125.25 142.5l-65.02-37.539L116.5 7.5Z"/><path fill="#30A507" d="M181.531 45.018 246.452 82.5l-56.281 97.482L125.25 142.5l56.281-97.482Z"/><path fill="#0084F4" d="m125.25 142.5 64.952 37.5-56.25 97.428L69 239.928l56.25-97.428Z"/><path fill="#F5CC0C" d="M60.262 104.979 125.25 142.5l-56.262 97.449L4 202.428l56.262-97.449Z"/><path fill="#fff" d="m159 76 6.495 3.75-75 129.904-6.495-3.75z"/><path fill="#fff" d="m80 120 3.75-6.495 86.603 50-3.75 6.495z"/></g></g><g clip-path="url(#f)"><ellipse cx="55" cy="82.5" fill="#fff" rx="55" ry="82.5" transform="matrix(.86603 .5 .5 -.86603 386.25 801.5)"/><mask id="g" width="107" height="129" x="421" y="693" maskUnits="userSpaceOnUse" style="mask-type:alpha"><ellipse cx="46.2" cy="69.3" fill="#fff" rx="46.2" ry="69.3" transform="scale(-1 1) rotate(-30 1070.02 1385.681)"/></mask><g mask="url(#g)"><path fill="#FB1907" d="m483.5 892.5-65.019-37.539L474.75 757.5l65.019 37.539L483.5 892.5Z"/><path fill="#30A507" d="M418.469 854.982 353.548 817.5l56.281-97.482L474.75 757.5l-56.281 97.482Z"/><path fill="#0084F4" d="M474.75 757.5 409.798 720l56.25-97.428 64.952 37.5-56.25 97.428Z"/><path fill="#F5CC0C" d="M539.738 795.021 474.75 757.5l56.262-97.449L596 697.572l-56.262 97.449Z"/><path fill="#fff" d="m509 691 6.495 3.75-75 129.904-6.495-3.75z"/><path fill="#fff" d="m430 735 3.75-6.495 86.603 50-3.75 6.495z"/></g></g></g><defs><clipPath id="a"><path fill="#fff" d="M0 0h600v900H0z"/></clipPath><clipPath id="b"><path fill="#fff" d="M0 0h600v900H0z"/></clipPath><clipPath id="d"><path fill="#fff" d="M50 30h150v225H50z"/></clipPath><clipPath id="f"><path fill="#fff" d="M550 870H400V645h150z"/></clipPath></defs></svg>