<svg xmlns="http://www.w3.org/2000/svg" width="600" height="900" fill="none"><g clip-path="url(#a)"><rect width="600" height="900" fill="#fff" rx="100"/><rect width="540" height="840" x="30" y="30" fill="#000" rx="100"/><ellipse cx="220" cy="330" fill="#fff" rx="220" ry="330" transform="matrix(-.86603 -.5 -.5 .86603 655 274)"/><path fill="#fff" d="M531.562 734v24.062h24v16.313h-24v24.063H515.25v-24.063h-24v-16.313h24V734h16.312Zm-57.812 11.375v15.437l-38.875 61.313H410.25v-61h-11.562v-15.75h11.562V729h18.812v16.375h44.688Zm-19.812 15.75h-25.25v39.5h.75l24.5-38.75v-.75ZM68.438 166v-24.062h-24v-16.313h24v-24.063H84.75v24.063h24v16.313h-24V166H68.437Zm57.812-11.375v-15.437l38.875-61.313h24.625v61h11.562v15.75H189.75V171h-18.812v-16.375H126.25Zm19.812-15.75h25.25v-39.5h-.75l-24.5 38.75v.75Z"/><g clip-path="url(#b)"><path fill="#fff" d="M223.508 409.992c6.025-9.532 18.726-12.431 28.369-6.475l70.893 43.794c9.643 5.956 12.575 18.512 6.55 28.044L251.961 597.74c-6.025 9.533-18.726 12.431-28.368 6.475l-70.894-43.793c-9.642-5.957-12.574-18.513-6.549-28.045l77.358-122.385Z"/><path fill="#F5CC0C" d="M227.478 426.989c6.025-9.533 18.726-12.431 28.368-6.475l49.731 30.721c9.643 5.956 12.575 18.512 6.55 28.044l-64.135 101.465c-6.025 9.532-18.726 12.431-28.369 6.474l-49.731-30.72c-9.642-5.957-12.574-18.513-6.549-28.045l64.135-101.464Z"/><path fill="#fff" d="M348.279 409.992c6.025-9.532 18.726-12.431 28.368-6.475l70.894 43.794c9.642 5.956 12.575 18.512 6.549 28.044L376.732 597.74c-6.025 9.533-18.726 12.431-28.368 6.475l-70.894-43.793c-9.642-5.957-12.575-18.513-6.55-28.045l77.359-122.385Z"/><path fill="#0084F4" d="M352.248 426.989c6.025-9.533 18.726-12.431 28.369-6.475l49.731 30.721c9.642 5.956 12.575 18.512 6.549 28.044l-64.134 101.465c-6.025 9.532-18.726 12.431-28.369 6.474l-49.731-30.72c-9.642-5.957-12.575-18.513-6.55-28.045l64.135-101.464Z"/><path fill="#fff" d="M348.039 302.259c6.025-9.532 18.726-12.43 28.368-6.474l70.894 43.793c9.642 5.957 12.575 18.512 6.549 28.045l-77.358 122.385c-6.025 9.532-18.726 12.431-28.369 6.475l-70.893-43.794c-9.643-5.956-12.575-18.512-6.55-28.044l77.359-122.386Z"/><path fill="#30A507" d="M352.008 319.256c6.025-9.532 18.726-12.431 28.369-6.474l49.731 30.72c9.642 5.957 12.575 18.512 6.549 28.045l-64.134 101.464c-6.026 9.533-18.727 12.431-28.369 6.475l-49.731-30.721c-9.643-5.956-12.575-18.512-6.55-28.044l64.135-101.465Z"/><path fill="#fff" d="M223.268 302.259c6.025-9.532 18.726-12.43 28.368-6.474l70.894 43.793c9.642 5.957 12.575 18.512 6.549 28.045l-77.358 122.385c-6.025 9.532-18.726 12.431-28.368 6.475l-70.894-43.794c-9.642-5.956-12.575-18.512-6.55-28.044l77.359-122.386Z"/><path fill="#FB1907" d="M227.237 319.256c6.025-9.532 18.726-12.431 28.369-6.474l49.731 30.72c9.642 5.957 12.575 18.512 6.549 28.045l-64.134 101.464c-6.025 9.533-18.726 12.431-28.369 6.475l-49.731-30.721c-9.642-5.956-12.575-18.512-6.55-28.044l64.135-101.465Z"/></g></g><defs><clipPath id="a"><path fill="#fff" d="M0 0h600v900H0z"/></clipPath><clipPath id="b"><path fill="#fff" d="M135 285h330v330H135z"/></clipPath></defs></svg>