<svg xmlns="http://www.w3.org/2000/svg" width="600" height="900" fill="none"><g clip-path="url(#a)"><rect width="600" height="900" fill="#fff" rx="100"/><rect width="540" height="840" x="30" y="30" fill="#F5CC0C" rx="100"/><ellipse cx="220" cy="330" fill="#fff" rx="220" ry="330" transform="matrix(-.86603 -.5 -.5 .86603 655 274)"/><path fill="#fff" d="M478.812 727.75c4.792 0 9.417.792 13.876 2.375 4.416 1.583 8.395 4.146 11.937 7.687 3.5 3.542 6.271 8.23 8.313 14.063 2.041 5.875 3.062 13.063 3.062 21.563 0 10.416-1.542 19.354-4.625 26.812-3.125 7.458-7.521 13.167-13.187 17.125-5.667 4-12.334 6-20 6-6.209 0-11.688-1.208-16.438-3.625-4.75-2.417-8.562-5.688-11.438-9.812-2.916-4.084-4.687-8.688-5.312-13.813h19.312c.792 3.25 2.417 5.792 4.876 7.625 2.416 1.833 5.416 2.75 9 2.75 6.041 0 10.645-2.625 13.812-7.875 3.125-5.25 4.688-12.417 4.688-21.5h-.626c-2.083 4.083-5.229 7.292-9.437 9.625-4.208 2.333-8.854 3.5-13.937 3.5-5.542 0-10.459-1.292-14.75-3.875-4.292-2.583-7.667-6.146-10.126-10.687-2.5-4.5-3.75-9.667-3.75-15.5 0-6.292 1.459-11.896 4.376-16.813 2.916-4.875 6.979-8.708 12.187-11.5 5.208-2.75 11.271-4.125 18.187-4.125Zm15.938 31.875c0-3-.688-5.75-2.062-8.25a16.363 16.363 0 0 0-5.626-5.937c-2.374-1.459-5.062-2.188-8.062-2.188-4.583 0-8.375 1.562-11.375 4.688-3.042 3.166-4.563 7.083-4.563 11.75 0 4.583 1.5 8.437 4.5 11.562 2.959 3.167 6.709 4.75 11.25 4.75 3 0 5.709-.75 8.126-2.25 2.416-1.458 4.333-3.438 5.75-5.938 1.374-2.458 2.062-5.187 2.062-8.187Z"/><path fill="#F5CC0C" d="M302.598 541.734c-10.482 0-20.599-1.731-30.352-5.195-9.661-3.463-18.366-9.069-26.113-16.816-7.656-7.748-13.718-18.002-18.184-30.762-4.466-12.852-6.699-28.574-6.699-47.168 0-22.786 3.372-42.337 10.117-58.652 6.836-16.315 16.452-28.802 28.848-37.461 12.396-8.75 26.979-13.125 43.75-13.125 13.581 0 25.566 2.643 35.957 7.929 10.39 5.287 18.73 12.442 25.019 21.465 6.381 8.933 10.254 19.004 11.621 30.215h-42.246c-1.731-7.109-5.286-12.669-10.664-16.68-5.286-4.01-11.849-6.015-19.687-6.015-13.216 0-23.288 5.742-30.215 17.226-6.836 11.485-10.254 27.162-10.254 47.032h1.367c4.558-8.933 11.439-15.951 20.645-21.055 9.206-5.104 19.368-7.656 30.488-7.656 12.122 0 22.878 2.825 32.266 8.476 9.388 5.651 16.771 13.444 22.148 23.379 5.469 9.844 8.203 21.146 8.203 33.906 0 13.763-3.19 26.022-9.57 36.778-6.38 10.664-15.267 19.049-26.66 25.156-11.393 6.016-24.655 9.023-39.785 9.023Zm-34.864-69.726c0 6.562 1.504 12.578 4.512 18.047 3.008 5.377 7.109 9.707 12.305 12.988 5.195 3.19 11.074 4.785 17.637 4.785 10.026 0 18.32-3.418 24.882-10.254 6.654-6.927 9.981-15.495 9.981-25.703 0-10.026-3.281-18.457-9.844-25.293-6.471-6.927-14.674-10.39-24.609-10.39-6.563 0-12.487 1.64-17.774 4.921-5.286 3.19-9.479 7.52-12.578 12.989-3.008 5.377-4.512 11.347-4.512 17.91Z"/><path fill="#fff" d="M121.188 172.25a41.17 41.17 0 0 1-13.876-2.375c-4.416-1.583-8.395-4.146-11.937-7.687-3.5-3.542-6.27-8.23-8.313-14.063C85.022 142.25 84 135.062 84 126.562c0-10.416 1.542-19.354 4.625-26.812 3.125-7.458 7.52-13.167 13.187-17.125 5.667-4 12.334-6 20-6 6.209 0 11.688 1.208 16.438 3.625 4.75 2.417 8.562 5.688 11.438 9.813 2.916 4.083 4.687 8.687 5.312 13.812h-19.312c-.792-3.25-2.417-5.792-4.876-7.625-2.416-1.833-5.416-2.75-9-2.75-6.041 0-10.645 2.625-13.812 7.875-3.125 5.25-4.688 12.417-4.688 21.5h.626c2.083-4.083 5.229-7.292 9.437-9.625 4.208-2.333 8.854-3.5 13.937-3.5 5.542 0 10.459 1.292 14.75 3.875 4.292 2.583 7.667 6.146 10.126 10.687 2.5 4.5 3.75 9.667 3.75 15.5 0 6.292-1.459 11.896-4.376 16.813-2.916 4.875-6.979 8.708-12.187 11.5-5.208 2.75-11.271 4.125-18.187 4.125Zm-15.938-31.875c0 3 .688 5.75 2.062 8.25a16.363 16.363 0 0 0 5.626 5.937c2.374 1.459 5.062 2.188 8.062 2.188 4.583 0 8.375-1.562 11.375-4.688 3.042-3.166 4.563-7.083 4.563-11.75 0-4.583-1.5-8.437-4.5-11.562-2.959-3.167-6.709-4.75-11.25-4.75-3 0-5.709.75-8.126 2.25-2.416 1.458-4.333 3.438-5.75 5.938-1.374 2.458-2.062 5.187-2.062 8.187Z"/></g><defs><clipPath id="a"><path fill="#fff" d="M0 0h600v900H0z"/></clipPath></defs></svg>