<svg xmlns="http://www.w3.org/2000/svg" width="600" height="900" fill="none"><g clip-path="url(#a)"><rect width="600" height="900" fill="#fff" rx="100"/><rect width="540" height="840" x="30" y="30" fill="#F5CC0C" rx="100"/><ellipse cx="220" cy="330" fill="#fff" rx="220" ry="330" transform="matrix(-.86603 -.5 -.5 .86603 655 274)"/><path fill="#fff" d="m506.188 729-38.5 76.375V806h44.874v16.125h-65.374V805.75L485.875 729h20.313Z"/><path fill="#F5CC0C" d="m242.715 539 84.219-167.07v-1.368H228.77v-35.273h143.007v35.82L287.148 539h-44.433Z"/><path fill="#fff" d="m93.813 171 38.499-76.375V94H87.437V77.875h65.375V94.25L114.125 171H93.812Z"/></g><defs><clipPath id="a"><path fill="#fff" d="M0 0h600v900H0z"/></clipPath></defs></svg>