<svg xmlns="http://www.w3.org/2000/svg" width="600" height="900" fill="none"><g clip-path="url(#a)"><rect width="600" height="900" fill="#fff" rx="100"/><rect width="540" height="840" x="30" y="30" fill="#F5CC0C" rx="100"/><ellipse cx="220" cy="330" fill="#fff" rx="220" ry="330" transform="matrix(-.86603 -.5 -.5 .86603 655 274)"/><path fill="#F5CC0C" d="m327.432 363.091 26.869 28.943-93.257 81.438c-14.84-15.985-13.551-40.574 2.878-54.921l63.51-55.46Z"/><path fill="#F5CC0C" d="m420.422 308.791-43.66 130.316-94.532-101.829 138.192-28.487ZM272.523 536.859l-26.87-28.943 93.256-81.439c14.839 15.985 13.551 40.573-2.877 54.92l-63.509 55.462Z"/><path fill="#F5CC0C" d="m179.579 591.21 43.658-130.317 94.533 101.828-138.191 28.489Z"/><path fill="#fff" d="m153.716 96.545 13.434 14.472-46.628 40.719c-7.42-7.993-6.776-20.287 1.439-27.46l31.755-27.73Z"/><path fill="#fff" d="m200.211 69.396-21.83 65.158-47.266-50.915 69.096-14.243Zm-73.95 114.033-13.435-14.471 46.628-40.72c7.42 7.993 6.776 20.287-1.438 27.46l-31.755 27.731Z"/><path fill="#fff" d="m79.79 210.605 21.828-65.159 47.267 50.914-69.095 14.245Zm393.926 505.94 13.434 14.472-46.628 40.719c-7.42-7.993-6.776-20.287 1.439-27.46l31.755-27.731Z"/><path fill="#fff" d="m520.211 689.396-21.83 65.158-47.266-50.915 69.096-14.243Zm-73.95 114.033-13.435-14.471 46.628-40.72c7.42 7.993 6.776 20.287-1.438 27.46l-31.755 27.731Z"/><path fill="#fff" d="m399.79 830.605 21.828-65.159 47.267 50.914-69.095 14.245Z"/></g><defs><clipPath id="a"><path fill="#fff" d="M0 0h600v900H0z"/></clipPath></defs></svg>