<svg xmlns="http://www.w3.org/2000/svg" width="600" height="600" fill="none" viewBox="0 0 600 600">
  <g clip-path="url(#a)">
    <path fill="#fff" d="M174.832 234.532c9.859-15.598 30.642-20.341 46.421-10.594l116.007 71.661c15.779 9.747 20.577 30.293 10.718 45.891L221.391 541.757c-9.859 15.598-30.643 20.342-46.421 10.595L58.962 480.69c-15.778-9.747-20.576-30.293-10.717-45.891l126.587-200.267Z"/>
    <path fill="#F5CC0C" d="M181.327 262.345c9.859-15.598 30.643-20.342 46.421-10.595l81.379 50.27c15.778 9.747 20.576 30.293 10.717 45.891L214.896 513.945c-9.86 15.598-30.643 20.341-46.421 10.594l-81.379-50.27c-15.778-9.747-20.576-30.293-10.717-45.891l104.948-166.033Z"/>
    <path fill="#fff" d="M379.002 234.532c9.859-15.598 30.643-20.341 46.421-10.594l116.008 71.661c15.778 9.747 20.576 30.293 10.717 45.891L425.561 541.757c-9.859 15.598-30.642 20.342-46.421 10.595L263.133 480.69c-15.779-9.747-20.577-30.293-10.718-45.891l126.587-200.267Z"/>
    <path fill="#0084F4" d="M385.497 262.345c9.86-15.598 30.643-20.342 46.421-10.595l81.379 50.27c15.778 9.747 20.576 30.293 10.717 45.891L419.066 513.945c-9.859 15.598-30.643 20.341-46.421 10.594l-81.379-50.27c-15.778-9.747-20.576-30.293-10.717-45.891l104.948-166.033Z"/>
    <path fill="#fff" d="M378.609 58.243c9.859-15.598 30.643-20.342 46.421-10.595l116.008 71.662c15.778 9.747 20.576 30.293 10.717 45.891L425.169 365.468c-9.86 15.598-30.643 20.341-46.422 10.594L262.74 304.401c-15.779-9.747-20.577-30.293-10.718-45.891L378.609 58.243Z"/>
    <path fill="#30A507" d="M385.104 86.055c9.86-15.598 30.643-20.341 46.421-10.594l81.379 50.27c15.778 9.747 20.576 30.293 10.717 45.891L418.673 337.655c-9.859 15.598-30.643 20.342-46.421 10.595l-81.378-50.27c-15.779-9.747-20.577-30.293-10.718-45.891L385.104 86.055Z"/>
    <path fill="#fff" d="M174.439 58.243c9.859-15.598 30.642-20.342 46.421-10.595l116.008 71.662c15.778 9.747 20.576 30.293 10.717 45.891L220.998 365.468c-9.859 15.598-30.643 20.341-46.421 10.594L58.569 304.401c-15.778-9.747-20.576-30.293-10.717-45.891L174.439 58.243Z"/>
    <path fill="#FB1907" d="M180.934 86.055c9.859-15.598 30.643-20.341 46.421-10.594l81.379 50.27c15.778 9.747 20.576 30.293 10.717 45.891L214.503 337.655c-9.859 15.598-30.643 20.342-46.421 10.595l-81.379-50.27c-15.778-9.747-20.576-30.293-10.717-45.891L180.934 86.055Z"/>
  </g>
  <defs>
    <clipPath id="a">
      <path fill="#fff" d="M30 30h540v540H30z"/>
    </clipPath>
  </defs>
</svg>
